<svg width="8" height="5" viewBox="0 0 8 5" fill="none" xmlns="http://www.w3.org/2000/svg">
<path id="angle-right - FontAwesome" fill-rule="evenodd" clip-rule="evenodd" d="M4 4.36364C3.93053 4.36364 3.86907 4.33864 3.81563 4.28866L0.0801606 0.794751C0.02672 0.744767 -3.00422e-08 0.687285 -2.72018e-08 0.622305C-2.43615e-08 0.557325 0.02672 0.499844 0.0801606 0.449859L0.480962 0.0749762C0.534402 0.0249916 0.595857 -3.23645e-07 0.66533 -3.20609e-07C0.734803 -3.17572e-07 0.796259 0.0249916 0.849699 0.0749763L4 3.02156L7.1503 0.0749765C7.20374 0.0249919 7.2652 -3.21193e-08 7.33467 -2.90825e-08C7.40414 -2.60458e-08 7.4656 0.0249919 7.51904 0.0749765L7.91984 0.449859C7.97328 0.499844 8 0.557325 8 0.622306C8 0.687286 7.97328 0.744767 7.91984 0.794752L4.18437 4.28866C4.13093 4.33864 4.06947 4.36364 4 4.36364Z" fill="#25262D"/>
</svg>
